<?xml version="1.0" encoding="UTF-8"?>
<svg width="48px" height="48px" viewBox="0 0 48 48" version="1.1" xmlns="http://www.w3.org/2000/svg" xmlns:xlink="http://www.w3.org/1999/xlink">
    <!-- Generator: Sketch 48.2 (47327) - http://www.bohemiancoding.com/sketch -->
    <title>noun_1207699_cc</title>
    <desc>Created with Sketch.</desc>
    <defs></defs>
    <g id="Desktop-Copy" stroke="none" stroke-width="1" fill="none" fill-rule="evenodd" transform="translate(-309.000000, -690.000000)">
        <g id="noun_1207699_cc" transform="translate(333.000000, 714.000000) scale(-1, 1) translate(-333.000000, -714.000000) translate(309.000000, 690.000000)" fill="#4A4A4A" fill-rule="nonzero">
            <path d="M41.9320615,47.2615385 L5.33169231,47.2615385 C2.39261538,47.2615385 0.00147692308,44.8704 0.00147692308,41.9305846 L0.00147692308,5.33095385 C0.00147692308,2.39187692 2.39261538,0 5.33169231,0 L41.9320615,0 C44.8711385,0 47.2630154,2.39113846 47.2630154,5.33021538 L47.2630154,41.9305846 C47.2630154,44.8704 44.8718769,47.2615385 41.9320615,47.2615385 Z M5.33169231,2.21538462 C3.61403077,2.21538462 2.21686154,3.61329231 2.21686154,5.33095385 L2.21686154,41.9305846 C2.21686154,43.6482462 3.61403077,45.0461538 5.33169231,45.0461538 L41.9320615,45.0461538 C43.6497231,45.0461538 45.0476308,43.6482462 45.0476308,41.9305846 L45.0476308,5.33095385 C45.0476308,3.61329231 43.6497231,2.21538462 41.9320615,2.21538462 L5.33169231,2.21538462 Z" id="Shape"></path>
            <path d="M7.06190769,19.9355077 C7.67409231,19.9355077 8.1696,19.44 8.1696,18.8278154 L8.1696,10.1796923 L18.7628308,20.7729231 C18.9792,20.9892923 19.2627692,21.0971077 19.5463385,21.0971077 C19.8299077,21.0971077 20.1134769,20.9892923 20.3298462,20.7729231 C20.7625846,20.3401846 20.7625846,19.6386462 20.3298462,19.2066462 L9.79643077,8.67396923 L18.384,8.67396923 C18.9961846,8.67396923 19.4916923,8.17846154 19.4916923,7.56627692 C19.4916923,6.95409231 18.9961846,6.45858462 18.384,6.45858462 L7.12246154,6.45858462 C7.11212308,6.45858462 7.10252308,6.46153846 7.09218462,6.46153846 C7.08184615,6.46153846 7.07224615,6.45858462 7.06190769,6.45858462 C6.44972308,6.45858462 5.95421538,6.95409231 5.95421538,7.56627692 L5.95421538,18.8278154 C5.95421538,19.44 6.44972308,19.9355077 7.06190769,19.9355077 Z" id="Shape"></path>
            <path d="M40.1693538,27.3260308 C39.5579077,27.3260308 39.0616615,27.8222769 39.0616615,28.4337231 L39.0616615,37.0818462 L28.4684308,26.4878769 C28.0356923,26.0551385 27.3348923,26.0551385 26.9021538,26.4878769 C26.4694154,26.9206154 26.4694154,27.6214154 26.9021538,28.0541538 L37.4355692,38.5875692 L28.8472615,38.5875692 C28.2358154,38.5875692 27.7395692,39.0838154 27.7395692,39.6952615 C27.7395692,40.3067077 28.2358154,40.8029538 28.8472615,40.8029538 L40.1088,40.8029538 C40.1191385,40.8029538 40.1287385,40.8 40.1390769,40.8 C40.1494154,40.8 40.1590154,40.8029538 40.1693538,40.8029538 C40.7808,40.8029538 41.2770462,40.3067077 41.2770462,39.6952615 L41.2770462,28.4337231 C41.2770462,27.8222769 40.7815385,27.3260308 40.1693538,27.3260308 Z" id="Shape"></path>
        </g>
    </g>
</svg>