<?xml version="1.0" encoding="UTF-8"?>
<svg width="17px" height="30px" viewBox="0 0 17 30" version="1.1" xmlns="http://www.w3.org/2000/svg" xmlns:xlink="http://www.w3.org/1999/xlink">
    <!-- Generator: Sketch 46.1 (44463) - http://www.bohemiancoding.com/sketch -->
    <title>mouse</title>
    <desc>Created with Sketch.</desc>
    <defs></defs>
    <g id="Page-1" stroke="none" stroke-width="1" fill="none" fill-rule="evenodd">
        <g id="Desktop-Copy" transform="translate(-213.000000, -502.000000)" fill-rule="nonzero" fill="#627392">
            <path d="M221.4375,502 C216.777187,502 213,505.777188 213,510.4375 L213,523.5625 C213,528.222813 216.777187,532 221.4375,532 C226.097813,532 229.875,528.222813 229.875,523.5625 L229.875,510.4375 C229.875,505.777188 226.097813,502 221.4375,502 Z M228,523.5625 C228,527.186875 225.061875,530.125 221.4375,530.125 C217.813125,530.125 214.875,527.186875 214.875,523.5625 L214.875,510.4375 C214.875,506.813125 217.813125,503.875 221.4375,503.875 C225.061875,503.875 228,506.813125 228,510.4375 L228,523.5625 Z M221.4375,506.6875 C220.92,506.6875 220.5,507.1075 220.5,507.625 L220.5,512.3125 C220.5,512.830938 220.92,513.25 221.4375,513.25 C221.955938,513.25 222.375,512.830938 222.375,512.3125 L222.375,507.625 C222.375,507.1075 221.955938,506.6875 221.4375,506.6875 Z" id="Shape"></path>
        </g>
    </g>
</svg>